<?xml version="1.0" encoding="UTF-8" standalone="no"?><!DOCTYPE svg PUBLIC "-//W3C//DTD SVG 1.1//EN" "http://www.w3.org/Graphics/SVG/1.1/DTD/svg11.dtd"><svg width="100%" height="100%" viewBox="0 0 227 227" version="1.1" xmlns="http://www.w3.org/2000/svg" xmlns:xlink="http://www.w3.org/1999/xlink" xml:space="preserve" xmlns:serif="http://www.serif.com/" style="fill-rule:evenodd;clip-rule:evenodd;stroke-linejoin:round;stroke-miterlimit:2;"><rect id="light" x="0" y="0" width="226.772" height="226.772" style="fill:none;"/><g id="light1" serif:id="light"><path d="M98.256,170.521c-10.959,-0 -19.647,-3.175 -26.062,-9.523c-6.415,-6.348 -9.622,-14.668 -9.622,-24.959c-0,-11.093 3.942,-19.847 11.828,-26.262c7.885,-6.415 18.978,-9.622 33.278,-9.622l16.999,-0c2.569,-0 4.652,-2.083 4.652,-4.652l0,-2.365c0,-4.143 -1.437,-7.384 -4.31,-9.723c-2.874,-2.339 -6.983,-3.508 -12.329,-3.508c-5.079,-0 -9.122,1.002 -12.129,3.007c-2.15,1.434 -3.6,3.346 -4.349,5.736c-0.593,1.835 -2.3,3.078 -4.228,3.078c-4.854,0.007 -13.465,0.007 -19.154,0.007c-1.524,-0 -2.967,-0.683 -3.934,-1.86c-0.966,-1.178 -1.354,-2.727 -1.057,-4.221c1.558,-8.02 5.61,-14.615 12.174,-19.78c8.152,-6.415 19.178,-9.623 33.078,-9.623c14.567,0 25.928,3.341 34.08,10.024c8.153,6.682 12.229,16.038 12.229,28.066l-0,65.019c-0,5.057 -4.099,9.156 -9.155,9.156l-10.758,-0c-5.057,-0 -9.156,-4.099 -9.156,-9.156l0,-5.263c0,-0.328 -0.234,-0.609 -0.556,-0.669c-0.323,-0.06 -0.642,0.119 -0.759,0.425c-1.791,4.509 -4.865,8.192 -9.209,11.054c-5.68,3.742 -12.864,5.614 -21.551,5.614Zm10.625,-24.057c6.281,-0 11.26,-1.571 14.935,-4.711c3.675,-3.141 5.513,-7.251 5.513,-12.329l0,-6.708c0,-2.496 -2.023,-4.519 -4.519,-4.519l-16.531,0c-5.345,0 -9.455,1.303 -12.329,3.909c-2.873,2.607 -4.31,5.981 -4.31,10.124c0,4.143 1.504,7.551 4.511,10.224c3.007,2.673 7.25,4.01 12.73,4.01Z" style="fill:#00324c;fill-rule:nonzero;"/><path d="M209.935,91.654c-0,3.312 -2.689,6 -6,6c-3.312,0 -6,-2.688 -6,-6l-0,-32.597c-0,-16.679 -13.541,-30.22 -30.22,-30.22l-32.597,0c-3.312,0 -6,-2.688 -6,-6c-0,-3.311 2.688,-6 6,-6l32.597,0c23.302,0 42.22,18.918 42.22,42.22l-0,32.597Zm-118.281,-74.817c3.312,0 6,2.689 6,6c0,3.312 -2.688,6 -6,6l-32.597,0c-16.679,0 -30.22,13.541 -30.22,30.22l0,32.597c0,3.312 -2.688,6 -6,6c-3.311,0 -6,-2.688 -6,-6l0,-32.597c0,-23.302 18.918,-42.22 42.22,-42.22l32.597,0Zm-74.817,118.281c0,-3.312 2.689,-6 6,-6c3.312,-0 6,2.688 6,6l0,32.597c0,16.679 13.541,30.22 30.22,30.22l32.597,-0c3.312,-0 6,2.688 6,6c0,3.311 -2.688,6 -6,6l-32.597,-0c-23.302,-0 -42.22,-18.918 -42.22,-42.22l0,-32.597Zm118.281,74.817c-3.312,-0 -6,-2.689 -6,-6c-0,-3.312 2.688,-6 6,-6l32.597,-0c16.679,-0 30.22,-13.541 30.22,-30.22l-0,-32.597c-0,-3.312 2.688,-6 6,-6c3.311,-0 6,2.688 6,6l-0,32.597c-0,23.302 -18.918,42.22 -42.22,42.22l-32.597,-0Z" style="fill:#24b4ff;"/></g></svg>