<svg xmlns="http://www.w3.org/2000/svg" xml:space="preserve" style="fill-rule:evenodd;clip-rule:evenodd;stroke-linejoin:round;stroke-miterlimit:2" viewBox="0 0 227 227">
  <path d="M0 0h226.772v226.772H0z" style="fill:none"/>
  <path d="M112.269 206.884V186.5c-17.295 0-21.416-7.065-21.416-22.372v-24.139c0-11.48-4.562-21.194-24.432-25.168v-2.797c19.87-3.974 24.432-13.761 24.432-25.242V62.644c0-15.233 4.121-22.298 21.416-22.298V19.887c-29.437 0-46.731 7.433-46.731 40.623v18.766c0 15.454-5.741 21.783-22.446 21.783v24.727c16.705 0 22.446 6.329 22.446 21.783v18.693c0 33.19 17.294 40.622 46.731 40.622Z" style="fill:#24b4ff;fill-rule:nonzero"/>
  <path d="M145.552 172.421c-6.885 0-12.623-1.857-17.213-5.57-4.591-3.712-7.763-8.843-9.518-15.39-1.756-6.548-1.958-14.075-.608-22.581l4.658-28.351c1.485-8.641 4.185-16.201 8.1-22.682 3.916-6.48 8.742-11.577 14.48-15.29 5.738-3.712 11.914-5.569 18.53-5.569 6.885 0 12.353 2.093 16.403 6.278 4.051 4.185 6.143 9.856 6.278 17.011h.608l2.632-21.264h30.175l-12.151 77.36c-.405 2.295.034 4.152 1.316 5.569 1.283 1.418 3.072 2.127 5.367 2.127h9.316l-4.253 26.326h-11.138c-8.641 0-15.324-2.193-20.049-6.581s-6.548-10.092-5.468-17.113l.203-1.62h-.405c-2.296 8.236-6.852 14.851-13.67 19.847-6.818 4.995-14.682 7.493-23.593 7.493Zm15.189-26.327c4.725 0 8.708-1.654 11.948-4.962 3.24-3.307 5.265-7.729 6.075-13.264l4.253-26.327c.945-5.535.304-9.957-1.924-13.264-2.227-3.308-5.704-4.962-10.429-4.962-4.591 0-8.438 1.654-11.543 4.962-3.106 3.307-5.131 7.729-6.076 13.264l-4.253 26.327c-.81 5.535-.168 9.957 1.924 13.264 2.093 3.308 5.434 4.962 10.025 4.962Z" style="fill:#006aa2;fill-rule:nonzero"/>
</svg>