<?xml version="1.0" encoding="UTF-8" standalone="no"?><!DOCTYPE svg PUBLIC "-//W3C//DTD SVG 1.1//EN" "http://www.w3.org/Graphics/SVG/1.1/DTD/svg11.dtd"><svg width="100%" height="100%" viewBox="0 0 227 227" version="1.1" xmlns="http://www.w3.org/2000/svg" xmlns:xlink="http://www.w3.org/1999/xlink" xml:space="preserve" xmlns:serif="http://www.serif.com/" style="fill-rule:evenodd;clip-rule:evenodd;stroke-linejoin:round;stroke-miterlimit:2;"><rect id="light" x="0" y="0" width="226.772" height="226.772" style="fill:none;"/><g id="light1" serif:id="light"><path d="M112.269,206.884l-0,-20.384c-17.295,-0 -21.416,-7.065 -21.416,-22.372l0,-24.139c0,-11.48 -4.562,-21.194 -24.432,-25.168l-0,-2.797c19.87,-3.974 24.432,-13.761 24.432,-25.242l0,-24.138c0,-15.233 4.121,-22.298 21.416,-22.298l-0,-20.459c-29.437,0 -46.731,7.433 -46.731,40.623l-0,18.766c-0,15.454 -5.741,21.783 -22.446,21.783l0,24.727c16.705,0 22.446,6.329 22.446,21.783l-0,18.693c-0,33.19 17.294,40.622 46.731,40.622Z" style="fill:#24b4ff;fill-rule:nonzero;"/><path d="M145.552,172.421c-6.885,-0 -12.623,-1.857 -17.213,-5.57c-4.591,-3.712 -7.763,-8.843 -9.518,-15.39c-1.756,-6.548 -1.958,-14.075 -0.608,-22.581l4.658,-28.351c1.485,-8.641 4.185,-16.201 8.1,-22.682c3.916,-6.48 8.742,-11.577 14.48,-15.29c5.738,-3.712 11.914,-5.569 18.53,-5.569c6.885,0 12.353,2.093 16.403,6.278c4.051,4.185 6.143,9.856 6.278,17.011l0.608,0l2.632,-21.264l30.175,0l-12.151,77.36c-0.405,2.295 0.034,4.152 1.316,5.569c1.283,1.418 3.072,2.127 5.367,2.127l9.316,-0l-4.253,26.326l-11.138,0c-8.641,0 -15.324,-2.193 -20.049,-6.581c-4.725,-4.388 -6.548,-10.092 -5.468,-17.113l0.203,-1.62l-0.405,0c-2.296,8.236 -6.852,14.851 -13.67,19.847c-6.818,4.995 -14.682,7.493 -23.593,7.493Zm15.189,-26.327c4.725,-0 8.708,-1.654 11.948,-4.962c3.24,-3.307 5.265,-7.729 6.075,-13.264l4.253,-26.327c0.945,-5.535 0.304,-9.957 -1.924,-13.264c-2.227,-3.308 -5.704,-4.962 -10.429,-4.962c-4.591,-0 -8.438,1.654 -11.543,4.962c-3.106,3.307 -5.131,7.729 -6.076,13.264l-4.253,26.327c-0.81,5.535 -0.168,9.957 1.924,13.264c2.093,3.308 5.434,4.962 10.025,4.962Z" style="fill:#006aa2;fill-rule:nonzero;"/></g></svg>